<svg width="2318" height="2557" viewBox="0 0 2318 2557" fill="none" xmlns="http://www.w3.org/2000/svg">
<path d="M1084.67 2.13302C1026 6.66636 954.933 17.1997 919.333 26.6664C914.267 27.9997 907.333 29.4664 904 29.9997C877.867 33.9997 790.4 60.7997 757.333 74.7997C752.533 76.7997 745.6 79.4664 742 80.6664C735.6 82.7997 722.133 88.533 707.2 95.4664C703.467 97.1997 699.867 98.6664 699.2 98.6664C697.867 98.6664 648.4 122.533 636 129.2C633.467 130.533 628.667 132.933 625.333 134.533C622 136 615.733 139.333 611.333 141.866C606.933 144.533 599.733 148.4 595.333 150.666C584.8 156 560.8 170.4 550 178C545.2 181.333 540.8 184 540.267 184C539.6 184 536.8 185.733 533.867 188C531.067 190.133 528 192 527.333 192C526.533 192 523.067 194.4 519.467 197.333C516 200.266 512.533 202.666 511.867 202.666C511.2 202.666 505.6 206.4 499.467 210.933C493.333 215.6 482.533 223.466 475.333 228.666C468.267 233.733 458.8 241.066 454.267 244.666C449.733 248.4 443.867 252.933 441.2 254.933C438.533 256.933 434.667 260.4 432.533 262.666C430.4 264.933 426.933 267.733 424.8 268.933C422.8 270 417.067 274.533 412.133 278.8C407.333 283.2 399.467 290.266 394.667 294.533C372.667 314.266 343.867 341.2 335.6 349.866C319.333 366.8 306.8 380.533 303.733 384.666C302 386.933 299.333 390.266 297.733 392C296 393.866 290.933 399.466 286.267 404.666C281.733 409.733 276.133 416.533 274.133 419.6C272 422.8 269.867 425.333 269.333 425.333C268.8 425.333 265.733 428.8 262.533 432.933C259.333 437.066 255.2 442 253.467 443.866C248.667 449.2 227.6 477.066 225.067 481.6C223.867 483.733 220.267 488.933 217.067 493.066C213.867 497.2 209.333 503.333 207.2 506.666C204.933 510 199.867 517.466 195.867 523.466C191.867 529.466 186.933 537.2 184.667 540.666C177.867 551.6 166.533 569.733 162.533 576C160.4 579.333 156.933 585.6 154.667 590C152.533 594.4 148.267 601.866 145.333 606.666C139.467 616.266 106.267 682.8 104.667 688C104.133 689.866 101.467 696.133 98.6667 702C91.4667 717.066 89.4667 721.733 86.8 729.733C85.4667 733.6 81.0667 745.333 77.0667 756C72.9333 766.666 68.6667 778.266 67.4667 782C66.2667 785.6 63.0667 794.666 60.4 802C57.7334 809.333 54.2667 820.4 52.5334 826.666C50.9334 832.933 47.0667 846.133 44 856C40.9334 865.866 37.3334 879.6 36 886.266C34.5334 893.066 31.3334 906.933 28.8 916.933C22.8 941.6 19.0667 959.6 17.3334 973.333C16.5334 979.6 14.6667 990.933 13.3334 998.666C11.8667 1006.4 9.20002 1025.87 7.33335 1042C5.46669 1058.13 3.33335 1075.87 2.53335 1081.33C0.40002 1097.07 -0.533314 1188.67 1.20002 1225.33C2.93335 1264.53 7.86669 1312.53 13.2 1342.67C15.3334 1354.8 17.4667 1367.6 18 1371.33C19.3334 1381.73 26.1334 1415.07 30.4 1432C32.5334 1440.4 35.3334 1452.13 36.6667 1458C38 1463.87 41.3334 1476.4 44.2667 1486C47.2 1495.47 50.9334 1508.4 52.6667 1514.67C54.4 1520.93 57.3334 1530.13 59.3334 1535.33C61.2 1540.4 63.7333 1547.07 64.9333 1550C66 1552.93 68 1559.07 69.3333 1563.47C70.6667 1568 73.0667 1574.53 74.5333 1578C76.1333 1581.47 77.3333 1584.8 77.3333 1585.47C77.3333 1586.13 79.4667 1591.07 82 1596.53C84.5333 1602 86.6667 1607.33 86.6667 1608.27C86.6667 1609.2 90 1617.2 94.1333 1626C98.1333 1634.8 103.2 1646.27 105.333 1651.33C107.333 1656.53 111.733 1666.13 115.067 1672.67C118.4 1679.33 122.667 1688 124.533 1692C131.467 1707.07 151.333 1743.07 162.533 1761.07C165.867 1766.4 170.133 1773.6 172 1777.07C173.867 1780.53 178.4 1787.87 182 1793.33C185.733 1798.8 190.4 1806.27 192.533 1810C194.667 1813.6 197.467 1817.87 198.8 1819.33C200 1820.8 203.467 1825.73 206.267 1830.13C209.067 1834.67 214.133 1842 217.6 1846.4C220.933 1850.8 224.533 1855.73 225.333 1857.47C226.267 1859.2 229.6 1863.6 232.667 1867.33C235.733 1870.93 239.733 1876.4 241.6 1879.33C243.467 1882.27 247.2 1887.07 250 1890C252.667 1892.93 256.267 1897.2 257.867 1899.47C261.6 1905.07 286.267 1934.67 289.867 1938C291.467 1939.47 293.6 1942 294.667 1943.47C298.667 1949.2 318.667 1970.4 343.333 1995.2C368.4 2020.27 372.267 2024 392 2041.2C397.467 2046 402.267 2050.27 402.667 2050.67C403.733 2052 433.467 2076.4 438.667 2080.13C441.2 2082.13 444.8 2085.07 446.667 2086.93C448.533 2088.67 452.4 2091.87 455.333 2094C458.267 2096.13 463.733 2100.4 467.333 2103.47C471.067 2106.4 475.867 2110 478.133 2111.47C480.533 2112.8 486.933 2117.47 492.533 2121.6C498.133 2125.87 502.933 2129.33 503.333 2129.33C504.4 2129.33 511.733 2134.53 517.067 2139.07C519.467 2141.07 524.267 2144.13 527.733 2146C531.2 2147.87 538.533 2152.4 544 2156C549.467 2159.73 555.333 2163.2 557.067 2164C558.667 2164.67 565.2 2168.67 571.467 2172.8C577.733 2176.8 583.867 2180.53 585.067 2181.07C586.4 2181.47 593.2 2185.33 600.4 2189.6C607.6 2193.87 614 2197.33 614.4 2197.33C614.933 2197.33 616.8 2198.13 618.667 2199.2C620.533 2200.13 625.333 2202.8 629.333 2204.93C633.333 2207.07 637.867 2209.47 639.333 2210.27C659.467 2221.33 728.533 2252 733.333 2252C734.133 2252 737.2 2253.2 740 2254.67C746 2257.73 760.667 2263.33 769.333 2266C772.667 2266.93 784 2270.93 794.667 2274.67C805.333 2278.53 817.333 2282.4 821.333 2283.33C825.333 2284.27 835.867 2287.2 844.667 2290C865.6 2296.53 877.867 2299.73 886 2301.2C889.733 2301.87 903.467 2305.07 916.667 2308.4C929.867 2311.73 945.2 2315.33 950.667 2316.4C984.267 2323.07 1006.8 2326.93 1008.4 2326.27C1010.4 2325.47 1010.53 2326.93 1007.87 2294C1007.07 2283.73 1006 2267.87 1005.33 2258.67C1004.8 2249.47 1003.33 2235.73 1002.27 2228C1001.07 2220.27 999.467 2208.53 998.667 2202C997.067 2188.93 990.533 2159.73 986.667 2148C985.333 2144 983.6 2137.33 982.667 2133.33C981.867 2129.33 980.533 2124.13 979.733 2122C976 2111.2 971.333 2099.07 962.667 2077.47C955.067 2058.53 930.8 2011.87 921.6 1998.13C918.133 1993.2 914 1986.53 912.267 1983.6C910.667 1980.53 908.133 1976.8 906.8 1975.33C905.467 1973.87 900.267 1966.67 895.333 1959.33C890.4 1952 884.267 1943.73 881.867 1940.93C879.333 1938.27 877.333 1935.47 877.333 1934.8C877.333 1934.27 873.733 1929.6 869.333 1924.67C864.933 1919.73 861.333 1915.2 861.333 1914.53C861.333 1913.73 848 1897.33 840.4 1888.67C839.067 1887.2 833.867 1881.2 828.8 1875.33C819.733 1864.8 804 1847.6 773.467 1814.67C764.933 1805.47 743.6 1783.6 726.133 1766C694.533 1734.27 679.2 1717.6 671.067 1705.73C668.667 1702.4 666.267 1699.2 665.6 1698.8C659.067 1694.27 626.4 1634.13 620.667 1616.13C613.6 1593.33 605.867 1562.8 604 1549.07C603.2 1543.73 602 1524.67 601.333 1506.67C600 1470.93 599.867 790.266 601.2 754.666L602 732.666L606 732.133C619.2 730.533 644.8 736.8 678.933 749.866C687.867 753.2 689.867 754.4 708.667 766.4C737.867 785.2 769.867 827.333 777.2 856.666C778.667 862.533 780.8 870.933 781.867 875.333C783.067 879.733 785.067 892.666 786.267 904C788.133 921.6 788.4 943.2 788.533 1048C788.667 1115.87 788.4 1207.6 788.133 1252C787.6 1329.87 787.733 1333.2 790.533 1349.33C793.333 1365.2 798.667 1381.2 804.133 1389.33C805.333 1391.2 807.733 1395.33 809.333 1398.67C812.8 1405.6 827.333 1423.2 837.6 1433.07C848.8 1443.73 862 1451.87 880.4 1459.47C898.4 1466.93 918.133 1472 929.2 1472C937.067 1472 959.467 1467.87 968.8 1464.67C996.4 1455.33 1020 1441.2 1035.6 1424.8C1050.8 1408.8 1063.07 1388.53 1067.07 1372.67C1068.27 1368.27 1070.27 1360.13 1071.73 1354.67C1073.2 1349.2 1075.07 1336.8 1075.87 1327.33C1076.93 1315.33 1077.33 1154.4 1077.33 808C1077.47 531.866 1077.87 302.933 1078.4 299.333C1079.2 293.333 1079.73 292.666 1082.93 292.266C1087.73 291.733 1112.93 296.533 1130.67 301.466C1147.07 306 1172.93 318.4 1185.2 327.6C1189.73 331.2 1195.47 335.333 1197.73 337.066C1204.8 342.266 1222.67 360.4 1224.93 364.666C1226.13 366.8 1228.8 370.666 1230.8 373.066C1235.47 378.4 1248.27 404.8 1253.33 419.333C1257.2 430.666 1261.33 453.6 1264.93 484.533C1267.07 501.6 1267.2 541.2 1267.47 926C1267.6 1312.53 1267.87 1349.47 1269.87 1358.4C1271.07 1363.73 1272.53 1369.2 1273.2 1370.4C1273.73 1371.6 1274.8 1375.07 1275.33 1377.87C1277.47 1390.13 1291.47 1411.33 1307.47 1427.07C1313.73 1433.07 1320.4 1438.8 1322.4 1439.87C1324.4 1440.93 1327.87 1443.07 1330 1444.67C1337.33 1450 1357.87 1459.73 1372 1464.53C1383.2 1468.27 1401.47 1472 1408.8 1472C1426.4 1472 1463.6 1459.47 1481.73 1447.6C1485.6 1445.07 1490.53 1442 1492.67 1440.93C1498.67 1437.6 1513.2 1423.33 1522.53 1411.6C1539.47 1390.27 1547.33 1370.13 1549.47 1343.33C1550.27 1332 1550.67 1109.47 1550.4 695.6L1550 65.0664L1546.93 62.6664C1544 60.2664 1512.8 49.733 1499.33 46.533C1495.73 45.733 1488.93 43.8664 1484.27 42.3997C1470 38.133 1445.2 31.8664 1435.33 29.9997C1430.27 28.933 1423.33 27.5997 1420 26.7997C1380.53 17.8664 1345.2 11.8664 1308 7.99969C1302.53 7.33303 1292.27 6.26636 1285.33 5.46636C1247.6 1.19969 1220.4 -0.000308503 1164.67 0.133025C1130.67 0.266358 1098.13 1.06636 1084.67 2.13302Z" fill="#FF3C00"/>
<path d="M1723.73 141.466C1723.47 141.733 1723.07 498.133 1722.67 933.333C1722.13 1563.33 1721.6 1726.8 1720.27 1735.33C1719.33 1741.2 1717.33 1755.87 1715.87 1768C1713.6 1787.07 1708.53 1813.6 1703.87 1831.33C1701.47 1840.13 1686.93 1876.13 1682.67 1883.33C1680.53 1886.93 1677.33 1892.93 1675.33 1896.4C1671.87 1902.93 1660.93 1920.4 1658.53 1923.2C1657.87 1924 1655.33 1927.47 1652.93 1930.93C1639.33 1950.67 1626.53 1964.93 1575.33 2017.47C1532.13 2061.73 1522 2072.4 1508 2089.2C1501.07 2097.6 1492.53 2107.6 1489.07 2111.6C1485.47 2115.47 1482.67 2119.33 1482.67 2120C1482.67 2120.8 1480.27 2124 1477.33 2127.2C1467.73 2137.6 1435.07 2181.6 1430.13 2190.67C1428.8 2193.2 1426.13 2197.07 1424.4 2199.33C1419.6 2205.07 1397.33 2243.33 1397.33 2245.6C1397.33 2246.8 1396.27 2249.07 1394.8 2250.8C1391.33 2255.33 1380 2277.2 1380 2279.47C1380 2280.4 1378.8 2283.47 1377.47 2286.27C1376 2289.07 1373.33 2294.8 1371.33 2299.07C1365.07 2312.67 1346.27 2367.6 1344.67 2376.93C1344.13 2379.73 1342.67 2385.6 1341.33 2390C1337.87 2401.87 1336.4 2407.33 1333.33 2421.33C1331.73 2428.27 1330 2436.4 1329.33 2439.33C1328.67 2442.27 1327.73 2448.8 1327.33 2454C1326.8 2459.07 1325.6 2467.2 1324.67 2472C1320.4 2492.8 1313.33 2555.07 1315.07 2556.8C1315.73 2557.6 1362.4 2548.27 1376.27 2544.67C1380.53 2543.6 1385.47 2542.67 1387.33 2542.67C1392.4 2542.67 1426.13 2534.4 1447.33 2528C1451.73 2526.67 1457.73 2525.2 1460.53 2524.8C1465.87 2524.13 1484.67 2518.53 1504 2512C1510.27 2509.87 1517.2 2507.87 1519.33 2507.33C1521.6 2506.93 1529.6 2504.13 1537.33 2501.2C1545.07 2498.13 1558.53 2493.2 1567.33 2490C1576.13 2486.8 1586.4 2482.93 1590 2481.33C1593.73 2479.73 1603.07 2475.87 1610.8 2472.67C1622.4 2467.87 1644.67 2457.87 1653.33 2453.33C1654.53 2452.8 1661.73 2449.2 1669.33 2445.47C1690.27 2435.07 1701.6 2429.2 1705.33 2426.67C1707.2 2425.47 1710.8 2423.6 1713.33 2422.67C1715.87 2421.6 1720.67 2418.93 1724 2416.8C1727.47 2414.53 1733.87 2410.53 1738.53 2408C1745.47 2404.13 1761.73 2394.13 1772.8 2386.93C1774.13 2386.13 1776.27 2384.93 1777.33 2384.4C1778.4 2383.87 1783.33 2380.67 1788.4 2377.07C1793.33 2373.6 1797.87 2370.67 1798.53 2370.67C1799.6 2370.67 1807.2 2365.2 1833.47 2346C1839.47 2341.6 1846.27 2336.93 1848.53 2335.47C1850.8 2334.13 1855.33 2330.93 1858.4 2328.13C1861.6 2325.47 1867.2 2321.2 1870.8 2318.67C1902.53 2295.73 1982.53 2221.07 2017.33 2181.73C2019.07 2179.73 2027.6 2170 2036.27 2160.27C2044.93 2150.53 2052 2142.13 2052 2141.6C2052 2141.07 2055.07 2137.33 2058.93 2133.33C2062.67 2129.33 2067.07 2123.87 2068.67 2121.33C2070.4 2118.8 2074.27 2114 2077.33 2110.67C2080.4 2107.47 2083.87 2102.93 2084.93 2100.67C2086 2098.53 2088.4 2095.2 2090 2093.33C2092.53 2090.53 2109.33 2066.93 2115.87 2056.8C2116.93 2055.33 2121.87 2047.87 2126.93 2040.4C2131.87 2032.93 2136 2026.53 2136 2026.13C2136 2025.73 2139.87 2019.6 2144.67 2012.4C2149.47 2005.2 2153.33 1998.67 2153.33 1997.73C2153.33 1996.93 2154.67 1994.53 2156.4 1992.4C2159.87 1988.27 2170.67 1970.13 2170.67 1968.53C2170.67 1968 2173.33 1963.33 2176.53 1958.13C2179.73 1952.93 2184.93 1943.6 2187.87 1937.33C2190.93 1931.2 2194.53 1924.27 2196 1922C2197.33 1919.87 2200.93 1912.53 2203.87 1905.73C2206.8 1898.93 2212.27 1887.07 2216 1879.33C2219.6 1871.6 2222.67 1864.4 2222.67 1863.47C2222.67 1862.53 2224.13 1858.8 2226 1855.2C2230 1847.6 2238.67 1826.67 2238.67 1824.93C2238.67 1824.27 2240.67 1818.53 2243.2 1812.13C2253.07 1787.2 2270.27 1734.93 2274.67 1716.67C2276.27 1710 2278.93 1700.13 2280.67 1694.53C2284.8 1681.47 2290 1659.73 2292.67 1644.67C2293.87 1638 2295.73 1629.33 2296.8 1625.2C2301.47 1606.67 2308.13 1563.33 2311.33 1529.33C2317.47 1466.53 2319.07 1409.73 2316.53 1344C2315.47 1315.07 2314.27 1290.4 2314 1289.2C2313.33 1287.33 2312.13 1275.87 2309.33 1245.33C2308.53 1237.6 2307.07 1227.07 2306 1222C2304.93 1216.8 2303.07 1206.67 2302 1199.33C2300.8 1192 2298.4 1179.73 2296.8 1172C2295.07 1164.27 2292.93 1153.47 2292 1148C2291.2 1142.53 2289.6 1134.4 2288.4 1130C2281.6 1103.2 2270.8 1065.33 2263.87 1044.4C2259.6 1031.07 2256 1019.2 2256 1018.27C2256 1017.33 2254.4 1012.67 2252.53 1007.87C2248.53 998.267 2244 986.133 2239.33 973.333C2236.53 965.467 2232 954.8 2225.2 940.533C2223.87 937.6 2222.67 934.4 2222.67 933.6C2222.67 932.667 2219.33 924.933 2215.2 916.267C2211.07 907.733 2206.93 898.267 2205.87 895.333C2204.8 892.533 2201.2 884.933 2197.73 878.667C2194.4 872.4 2188.8 861.733 2185.2 854.933C2181.6 848 2177.6 840.8 2176.13 838.8C2174.67 836.8 2172 832 2170.13 828C2166.4 820.133 2163.07 814.4 2157.33 806C2155.33 803.067 2153.33 799.333 2152.8 797.733C2152.27 796.133 2149.33 791.067 2146.27 786.4C2143.07 781.733 2138.27 774.133 2135.33 769.333C2132.53 764.533 2127.47 756.933 2124.13 752.4C2118 744.267 2117.07 742.8 2106.67 727.333C2103.73 722.933 2100.93 718.667 2100.4 718C2092.4 707.733 2084 695.867 2084 695.067C2084 694.4 2081.2 690.667 2077.73 686.8C2074.13 682.8 2069.6 676.933 2067.33 673.867C2063.87 668.933 2053.73 656.267 2047.33 648.933C2003.33 598.667 1967.87 562.133 1934.13 532.8C1918 518.667 1900.53 501.733 1893.87 493.467L1888 486.4V399.467C1888 308.667 1887.6 300.8 1881.73 274.666C1880.67 269.866 1879.33 263.333 1878.67 260C1876.4 247.333 1865.73 226.8 1853.73 211.466C1840.53 194.8 1813.47 169.866 1805.47 167.066C1804.27 166.533 1799.47 164 1794.67 161.2C1784.67 155.333 1773.6 151.066 1764.4 149.333C1760.93 148.666 1753.2 146.933 1747.33 145.466C1736 142.666 1724.27 140.666 1723.73 141.466Z" fill="#FF3C00"/>
</svg>
